<?xml version="1.0" standalone="no"?>
<!DOCTYPE svg PUBLIC "-//W3C//DTD SVG 20010904//EN"
 "http://www.w3.org/TR/2001/REC-SVG-20010904/DTD/svg10.dtd">
<svg version="1.0" xmlns="http://www.w3.org/2000/svg"
 width="121.000000pt" height="121.000000pt" viewBox="0 0 121.000000 121.000000"
 preserveAspectRatio="xMidYMid meet">
<metadata>
Created by potrace 1.11, written by Peter Selinger 2001-2013
</metadata>
<g transform="translate(0.000000,121.000000) scale(0.100000,-0.100000)"
fill="#000000" stroke="none">
<path d="M500 1008 c-19 -5 -53 -21 -75 -36 -59 -41 -123 -142 -90 -142 7 0
15 10 19 23 11 44 72 103 131 125 135 52 285 0 339 -117 17 -38 21 -42 24 -23
8 50 -76 138 -158 167 -47 17 -136 18 -190 3z"/>
<path d="M545 965 c-66 -15 -105 -39 -133 -82 -34 -52 -22 -61 14 -10 35 49
76 72 147 82 41 6 56 3 111 -24 49 -24 68 -40 80 -66 17 -35 41 -50 29 -17
-14 37 -37 64 -77 87 -59 34 -112 44 -171 30z"/>
<path d="M534 919 c-40 -11 -84 -55 -84 -83 1 -17 3 -15 14 9 38 88 176 94
248 12 16 -18 25 -23 19 -12 -13 29 -41 52 -84 70 -40 17 -67 18 -113 4z"/>
<path d="M40 735 l0 -65 50 0 c58 0 52 18 51 -168 l0 -112 75 0 74 0 0 140 0
140 38 0 37 0 0 -137 0 -138 73 -3 72 -3 1 53 c0 29 3 47 6 41 6 -16 94 -18
109 -3 7 7 10 -5 9 -40 l-2 -50 74 0 73 0 0 205 0 205 -74 0 -74 0 -29 -62
-30 -63 -28 63 -28 62 -238 0 -239 0 0 -65z"/>
<path d="M794 595 l0 -205 73 0 c80 0 75 -5 75 73 0 45 4 43 48 -22 l35 -51
93 0 93 0 -66 85 -66 84 21 29 c48 65 29 160 -40 194 -27 14 -61 18 -151 18
l-116 0 1 -205z m179 71 c6 -16 -1 -26 -18 -26 -6 0 -11 9 -12 20 -2 23 22 27
30 6z"/>
</g>
</svg>
